<svg width="31" height="29" viewBox="0 0 31 29" fill="none" xmlns="http://www.w3.org/2000/svg">
<path d="M14.8605 26.79C21.9739 26.79 27.7405 21.0235 27.7405 13.91C27.7405 6.7966 21.9739 1.03003 14.8605 1.03003C7.74704 1.03003 1.98047 6.7966 1.98047 13.91C1.98047 21.0235 7.74704 26.79 14.8605 26.79Z" fill="#663399"/>
<path d="M4.75977 15.65C4.27977 15.65 3.88977 15.27 3.86977 14.79C3.70977 10.15 6.51977 5.94998 10.8798 4.34998C11.3398 4.17998 11.8498 4.41998 12.0198 4.87998C12.1898 5.33998 11.9498 5.84998 11.4898 6.01998C7.85977 7.34998 5.50977 10.85 5.63977 14.72C5.65977 15.21 5.26977 15.62 4.77977 15.64C4.76977 15.64 4.75977 15.64 4.74977 15.64L4.75977 15.65Z" fill="white"/>
<path d="M19.7997 16H14.8597C14.3697 16 13.9697 15.6 13.9697 15.11V8.01C13.9697 7.52 14.3697 7.12 14.8597 7.12C15.3497 7.12 15.7497 7.52 15.7497 8.01V14.22H19.7997C20.2897 14.22 20.6897 14.62 20.6897 15.11C20.6897 15.6 20.2897 16 19.7997 16Z" fill="white"/>
</svg>
